<svg xmlns="http://www.w3.org/2000/svg" width="320" height="5522" fill="none"><g clip-path="url('#a')"><path fill="url('#b')" d="M0 0h320v5522H0z"/><path fill="#F3848C" fill-opacity=".12" d="M84 5147c0 11.05-8.954 20-20 20s-20-8.95-20-20 8.954-20 20-20 20 8.95 20 20Zm-32.268 0c0 6.78 5.493 12.27 12.268 12.27s12.268-5.49 12.268-12.27c0-6.78-5.493-12.27-12.268-12.27s-12.268 5.49-12.268 12.27ZM311 5404c0 19.33-15.67 35-35 35s-35-15.67-35-35 15.67-35 35-35 35 15.67 35 35Zm-56.469 0c0 11.86 9.612 21.47 21.469 21.47 11.857 0 21.469-9.61 21.469-21.47s-9.612-21.47-21.469-21.47c-11.857 0-21.469 9.61-21.469 21.47ZM271 5225c0 8.28-6.716 15-15 15-8.284 0-15-6.72-15-15 0-8.28 6.716-15 15-15 8.284 0 15 6.72 15 15Zm-24.201 0a9.2 9.2 0 0 0 9.201 9.2 9.2 9.2 0 1 0-9.201-9.2ZM310 4689c0 19.33-15.67 35-35 35s-35-15.67-35-35 15.67-35 35-35 35 15.67 35 35Zm-56.469 0c0 11.86 9.612 21.47 21.469 21.47 11.857 0 21.469-9.61 21.469-21.47s-9.612-21.47-21.469-21.47c-11.857 0-21.469 9.61-21.469 21.47Z"/><path fill="#3C322D" fill-opacity=".06" d="M292 3939c0 8.84-7.163 16-16 16s-16-7.16-16-16 7.163-16 16-16 16 7.16 16 16Zm-22.401 0c0 3.54 2.866 6.4 6.401 6.4a6.397 6.397 0 0 0 6.401-6.4c0-3.54-2.866-6.4-6.401-6.4a6.397 6.397 0 0 0-6.401 6.4Z"/><path fill="#D68362" fill-opacity=".17" d="M65 3984c0 13.81-11.193 25-25 25s-25-11.19-25-25 11.193-25 25-25 25 11.19 25 25Zm-43.253 0c0 10.08 8.172 18.25 18.253 18.25s18.253-8.17 18.253-18.25-8.172-18.25-18.253-18.25-18.253 8.17-18.253 18.25Z"/><path fill="#F3848C" fill-opacity=".12" d="M300 4292c0 11.05-8.954 20-20 20s-20-8.95-20-20 8.954-20 20-20 20 8.95 20 20Zm-32.268 0c0 6.78 5.493 12.27 12.268 12.27s12.268-5.49 12.268-12.27c0-6.78-5.493-12.27-12.268-12.27s-12.268 5.49-12.268 12.27ZM101 4506c0 16.57-13.431 30-30 30-16.569 0-30-13.43-30-30s13.431-30 30-30c16.569 0 30 13.43 30 30Zm-48.402 0c0 10.16 8.239 18.4 18.402 18.4s18.402-8.24 18.402-18.4c0-10.16-8.239-18.4-18.402-18.4s-18.402 8.24-18.402 18.4Z"/><path fill="#D68362" fill-opacity=".15" d="M300 2385c0 13.81-11.193 25-25 25s-25-11.19-25-25 11.193-25 25-25 25 11.19 25 25Zm-40.372 0c0 8.49 6.882 15.37 15.372 15.37s15.372-6.88 15.372-15.37c0-8.49-6.882-15.37-15.372-15.37s-15.372 6.88-15.372 15.37Z"/><path fill="#3C322D" fill-opacity=".12" d="M320 2839c0 5.52-4.477 10-10 10s-10-4.48-10-10 4.477-10 10-10 10 4.48 10 10Zm-17.394 0c0 4.08 3.31 7.39 7.394 7.39a7.393 7.393 0 0 0 7.394-7.39c0-4.08-3.31-7.39-7.394-7.39a7.393 7.393 0 0 0-7.394 7.39Z"/><path fill="#F3848C" fill-opacity=".12" d="M315 3314c0 11.05-8.954 20-20 20s-20-8.95-20-20 8.954-20 20-20 20 8.95 20 20Zm-32.268 0c0 6.78 5.493 12.27 12.268 12.27s12.268-5.49 12.268-12.27c0-6.78-5.493-12.27-12.268-12.27s-12.268 5.49-12.268 12.27Z"/><path fill="#3C322D" fill-opacity=".06" d="M44 2777c0 8.84-7.163 16-16 16s-16-7.16-16-16 7.163-16 16-16 16 7.16 16 16Zm-22.401 0c0 3.54 2.866 6.4 6.401 6.4a6.397 6.397 0 0 0 6.401-6.4c0-3.54-2.866-6.4-6.401-6.4a6.397 6.397 0 0 0-6.401 6.4Z"/><path fill="#D68362" fill-opacity=".17" d="M333 1862c0 11.05-8.954 20-20 20s-20-8.95-20-20 8.954-20 20-20 20 8.95 20 20Zm-34.603 0c0 8.06 6.538 14.6 14.603 14.6s14.603-6.54 14.603-14.6c0-8.06-6.538-14.6-14.603-14.6s-14.603 6.54-14.603 14.6Z"/><path fill="#3C322D" fill-opacity=".06" d="M150 1998a8 8 0 0 1-8 8 8 8 0 0 1-8-8 8 8 0 0 1 8-8 8 8 0 0 1 8 8Zm-11.201 0c0 1.77 1.433 3.2 3.201 3.2a3.199 3.199 0 0 0 3.201-3.2c0-1.77-1.433-3.2-3.201-3.2a3.199 3.199 0 0 0-3.201 3.2ZM313 2245a8 8 0 0 1-8 8 8 8 0 0 1-8-8 8 8 0 0 1 8-8 8 8 0 0 1 8 8Zm-11.201 0c0 1.77 1.433 3.2 3.201 3.2a3.199 3.199 0 0 0 3.201-3.2c0-1.77-1.433-3.2-3.201-3.2a3.199 3.199 0 0 0-3.201 3.2Z"/><path fill="#F3848C" fill-opacity=".12" d="M200 1618c0 11.05-8.954 20-20 20s-20-8.95-20-20 8.954-20 20-20 20 8.95 20 20Zm-32.268 0c0 6.78 5.493 12.27 12.268 12.27s12.268-5.49 12.268-12.27c0-6.78-5.493-12.27-12.268-12.27s-12.268 5.49-12.268 12.27ZM17 1776c0 11.05-8.954 20-20 20s-20-8.95-20-20 8.954-20 20-20 20 8.95 20 20Zm-32.268 0c0 6.78 5.493 12.27 12.268 12.27s12.268-5.49 12.268-12.27c0-6.78-5.493-12.27-12.268-12.27s-12.268 5.49-12.268 12.27Z"/><path fill="#3C322D" fill-opacity=".12" d="M242 1021c0 13.81-11.193 25-25 25s-25-11.19-25-25 11.193-25 25-25 25 11.19 25 25Zm-43.485 0c0 10.21 8.276 18.48 18.485 18.48s18.485-8.27 18.485-18.48-8.276-18.48-18.485-18.48-18.485 8.27-18.485 18.48Z"/><path fill="#D68362" fill-opacity=".15" d="M343 1194c0 13.81-11.193 25-25 25s-25-11.19-25-25 11.193-25 25-25 25 11.19 25 25Zm-40.372 0c0 8.49 6.882 15.37 15.372 15.37s15.372-6.88 15.372-15.37c0-8.49-6.882-15.37-15.372-15.37s-15.372 6.88-15.372 15.37Z"/><path fill="#3C322D" fill-opacity=".12" d="M265 1360c0 5.52-4.477 10-10 10s-10-4.48-10-10 4.477-10 10-10 10 4.48 10 10Zm-17.394 0c0 4.08 3.31 7.39 7.394 7.39a7.393 7.393 0 0 0 7.394-7.39c0-4.08-3.31-7.39-7.394-7.39a7.393 7.393 0 0 0-7.394 7.39Z"/><path fill="#D68362" fill-opacity=".17" d="M22 1295c0 13.81-11.193 25-25 25s-25-11.19-25-25 11.193-25 25-25 25 11.19 25 25Zm-43.253 0c0 10.08 8.172 18.25 18.253 18.25s18.253-8.17 18.253-18.25S7.081 1276.75-3 1276.75s-18.253 8.17-18.253 18.25Z"/><path fill="#3C322D" fill-opacity=".06" d="M331 1467c0 8.84-7.163 16-16 16s-16-7.16-16-16 7.163-16 16-16 16 7.16 16 16Zm-22.401 0c0 3.54 2.866 6.4 6.401 6.4a6.397 6.397 0 0 0 6.401-6.4c0-3.54-2.866-6.4-6.401-6.4a6.397 6.397 0 0 0-6.401 6.4Z"/><path fill="#F3848C" fill-opacity=".12" d="M294 697c0 22.091-17.909 40-40 40s-40-17.909-40-40 17.909-40 40-40 40 17.909 40 40Zm-64.536 0c0 13.551 10.985 24.536 24.536 24.536 13.551 0 24.536-10.985 24.536-24.536 0-13.551-10.985-24.536-24.536-24.536-13.551 0-24.536 10.985-24.536 24.536Z"/><path fill="#E6C01C" fill-opacity=".06" d="M36 916c0 13.807-11.193 25-25 25s-25-11.193-25-25 11.193-25 25-25 25 11.193 25 25Zm-40.335 0c0 8.469 6.866 15.335 15.335 15.335 8.47 0 15.335-6.866 15.335-15.335 0-8.469-6.866-15.335-15.335-15.335-8.47 0-15.335 6.866-15.335 15.335Z"/><path fill="#F3848C" fill-opacity=".12" d="M88 129c0 13.807-11.193 25-25 25s-25-11.193-25-25 11.193-25 25-25 25 11.193 25 25Zm-40.335 0c0 8.469 6.866 15.335 15.335 15.335 8.47 0 15.335-6.866 15.335-15.335 0-8.469-6.866-15.335-15.335-15.335-8.47 0-15.335 6.866-15.335 15.335Z"/></g><defs><linearGradient id="b" x1="160" x2="-7.141" y1="588.348" y2="5516.63" gradientUnits="userSpaceOnUse"><stop stop-color="#E5E2E3"/><stop offset=".306" stop-color="#FDFEFE"/><stop offset=".677" stop-color="#E5E2E3"/><stop offset="1" stop-color="#FDFEFE"/></linearGradient><clipPath id="a"><path fill="#fff" d="M0 0h320v5522H0z"/></clipPath></defs></svg>