<svg xmlns="http://www.w3.org/2000/svg" width="768" height="4083" fill="none"><g clip-path="url('#a')"><path fill="url('#b')" d="M0 0h768v4083H0z"/><path fill="#3C322D" fill-opacity=".12" d="M498 3926c0 5.52-4.477 10-10 10s-10-4.48-10-10 4.477-10 10-10 10 4.48 10 10Zm-17.394 0c0 4.08 3.31 7.39 7.394 7.39a7.393 7.393 0 0 0 7.394-7.39c0-4.08-3.31-7.39-7.394-7.39a7.393 7.393 0 0 0-7.394 7.39Z"/><path fill="#D68362" fill-opacity=".17" d="M173 3906c0 27.61-22.386 50-50 50s-50-22.39-50-50 22.386-50 50-50 50 22.39 50 50Zm-86.507 0c0 20.16 16.345 36.51 36.507 36.51s36.507-16.35 36.507-36.51c0-20.16-16.345-36.51-36.507-36.51s-36.507 16.35-36.507 36.51Z"/><path fill="#3C322D" fill-opacity=".12" d="M786 3685c0 27.61-22.386 50-50 50s-50-22.39-50-50 22.386-50 50-50 50 22.39 50 50Zm-86.97 0c0 20.42 16.552 36.97 36.97 36.97s36.97-16.55 36.97-36.97c0-20.42-16.552-36.97-36.97-36.97s-36.97 16.55-36.97 36.97Z"/><path fill="#F3848C" fill-opacity=".12" d="M55 3587c0 22.09-17.909 40-40 40s-40-17.91-40-40 17.909-40 40-40 40 17.91 40 40Zm-64.536 0c0 13.55 10.985 24.54 24.536 24.54 13.55 0 24.536-10.99 24.536-24.54 0-13.55-10.985-24.54-24.536-24.54-13.55 0-24.536 10.99-24.536 24.54ZM171 3215c0 11.05-8.954 20-20 20s-20-8.95-20-20 8.954-20 20-20 20 8.95 20 20Zm-32.268 0c0 6.78 5.493 12.27 12.268 12.27s12.268-5.49 12.268-12.27c0-6.78-5.493-12.27-12.268-12.27s-12.268 5.49-12.268 12.27ZM768 2652c0 11.05-8.954 20-20 20s-20-8.95-20-20 8.954-20 20-20 20 8.95 20 20Zm-32.268 0c0 6.78 5.493 12.27 12.268 12.27s12.268-5.49 12.268-12.27c0-6.78-5.493-12.27-12.268-12.27s-12.268 5.49-12.268 12.27Z"/><path fill="#3C322D" fill-opacity=".12" d="M295 2532c0 5.52-4.477 10-10 10s-10-4.48-10-10 4.477-10 10-10 10 4.48 10 10Zm-17.394 0c0 4.08 3.31 7.39 7.394 7.39a7.393 7.393 0 0 0 7.394-7.39c0-4.08-3.31-7.39-7.394-7.39a7.393 7.393 0 0 0-7.394 7.39Z"/><path fill="#E6C01C" fill-opacity=".06" d="M167 2814c0 27.61-22.386 50-50 50s-50-22.39-50-50 22.386-50 50-50 50 22.39 50 50Zm-80.67 0c0 16.94 13.732 30.67 30.67 30.67 16.938 0 30.67-13.73 30.67-30.67s-13.732-30.67-30.67-30.67c-16.938 0-30.67 13.73-30.67 30.67Z"/><path fill="#D68362" fill-opacity=".15" d="M616 3122c0 27.61-22.386 50-50 50s-50-22.39-50-50 22.386-50 50-50 50 22.39 50 50Zm-80.743 0c0 16.98 13.764 30.74 30.743 30.74s30.743-13.76 30.743-30.74c0-16.98-13.764-30.74-30.743-30.74s-30.743 13.76-30.743 30.74Z"/><path fill="#E6E1D8" d="M708 2894c0 16.57-13.431 30-30 30-16.569 0-30-13.43-30-30s13.431-30 30-30c16.569 0 30 13.43 30 30Zm-51.904 0c0 12.1 9.807 21.9 21.904 21.9s21.904-9.8 21.904-21.9c0-12.1-9.807-21.9-21.904-21.9s-21.904 9.8-21.904 21.9Z"/><path fill="#D68362" fill-opacity=".15" d="M464 2369c0 27.61-22.386 50-50 50s-50-22.39-50-50 22.386-50 50-50 50 22.39 50 50Zm-80.743 0c0 16.98 13.764 30.74 30.743 30.74s30.743-13.76 30.743-30.74c0-16.98-13.764-30.74-30.743-30.74s-30.743 13.76-30.743 30.74Z"/><path fill="#D68362" fill-opacity=".17" d="M93 1971c0 27.61-22.386 50-50 50s-50-22.39-50-50 22.386-50 50-50 50 22.39 50 50Zm-86.507 0c0 20.16 16.345 36.51 36.507 36.51s36.507-16.35 36.507-36.51c0-20.16-16.345-36.51-36.507-36.51S6.493 1950.84 6.493 1971Z"/><path fill="#3C322D" fill-opacity=".12" d="M706 1750c0 27.61-22.386 50-50 50s-50-22.39-50-50 22.386-50 50-50 50 22.39 50 50Zm-86.97 0c0 20.42 16.552 36.97 36.97 36.97s36.97-16.55 36.97-36.97c0-20.42-16.552-36.97-36.97-36.97s-36.97 16.55-36.97 36.97Z"/><path fill="#D68362" fill-opacity=".17" d="M24 1399c0 11.05-8.954 20-20 20s-20-8.95-20-20 8.954-20 20-20 20 8.95 20 20Zm-34.603 0c0 8.06 6.538 14.6 14.603 14.6s14.603-6.54 14.603-14.6c0-8.06-6.538-14.6-14.603-14.6s-14.603 6.54-14.603 14.6Z"/><path fill="#F3848C" fill-opacity=".12" d="M227 1332c0 11.05-8.954 20-20 20s-20-8.95-20-20 8.954-20 20-20 20 8.95 20 20Zm-32.268 0c0 6.78 5.493 12.27 12.268 12.27s12.268-5.49 12.268-12.27c0-6.78-5.493-12.27-12.268-12.27s-12.268 5.49-12.268 12.27Z"/><path fill="#E6C01C" fill-opacity=".06" d="M471 1321c0 13.81-11.193 25-25 25s-25-11.19-25-25 11.193-25 25-25 25 11.19 25 25Zm-40.335 0c0 8.47 6.866 15.33 15.335 15.33 8.469 0 15.335-6.86 15.335-15.33 0-8.47-6.866-15.33-15.335-15.33-8.469 0-15.335 6.86-15.335 15.33Z"/><path fill="#3C322D" fill-opacity=".06" d="M104 1296a8 8 0 0 1-8 8c-4.418 0-8-3.58-8-8s3.582-8 8-8a8 8 0 0 1 8 8Zm-11.2 0c0 1.77 1.432 3.2 3.2 3.2 1.768 0 3.2-1.43 3.2-3.2 0-1.77-1.432-3.2-3.2-3.2-1.768 0-3.2 1.43-3.2 3.2Z"/><path fill="#D68362" fill-opacity=".15" d="M787 1346c0 13.81-11.193 25-25 25s-25-11.19-25-25 11.193-25 25-25 25 11.19 25 25Zm-40.372 0c0 8.49 6.882 15.37 15.372 15.37s15.372-6.88 15.372-15.37c0-8.49-6.882-15.37-15.372-15.37s-15.372 6.88-15.372 15.37Z"/><path fill="#F3848C" fill-opacity=".12" d="M428 941c0 11.046-8.954 20-20 20s-20-8.954-20-20 8.954-20 20-20 20 8.954 20 20Zm-32.268 0c0 6.775 5.493 12.268 12.268 12.268s12.268-5.493 12.268-12.268-5.493-12.268-12.268-12.268-12.268 5.493-12.268 12.268Z"/><path fill="#E6C01C" fill-opacity=".06" d="M335 1154c0 13.81-11.193 25-25 25s-25-11.19-25-25 11.193-25 25-25 25 11.19 25 25Zm-40.335 0c0 8.47 6.866 15.33 15.335 15.33 8.469 0 15.335-6.86 15.335-15.33 0-8.47-6.866-15.33-15.335-15.33-8.469 0-15.335 6.86-15.335 15.33Z"/><path fill="#3C322D" fill-opacity=".12" d="M82 833c0 13.807-11.193 25-25 25s-25-11.193-25-25 11.193-25 25-25 25 11.193 25 25Zm-43.485 0c0 10.209 8.276 18.485 18.485 18.485S75.485 843.209 75.485 833 67.209 814.515 57 814.515 38.515 822.791 38.515 833ZM378 1024c0 5.52-4.477 10-10 10s-10-4.48-10-10 4.477-10 10-10 10 4.48 10 10Zm-17.394 0c0 4.08 3.31 7.39 7.394 7.39a7.393 7.393 0 0 0 7.394-7.39c0-4.08-3.31-7.39-7.394-7.39a7.393 7.393 0 0 0-7.394 7.39Z"/><path fill="#D68362" fill-opacity=".15" d="M793 795c0 13.807-11.193 25-25 25s-25-11.193-25-25 11.193-25 25-25 25 11.193 25 25Zm-40.372 0c0 8.49 6.882 15.372 15.372 15.372s15.372-6.882 15.372-15.372-6.882-15.372-15.372-15.372-15.372 6.882-15.372 15.372Z"/><path fill="#D68362" fill-opacity=".17" d="M612 1004c0 13.81-11.193 25-25 25s-25-11.19-25-25c0-13.807 11.193-25 25-25s25 11.193 25 25Zm-43.253 0c0 10.08 8.172 18.25 18.253 18.25s18.253-8.17 18.253-18.25c0-10.081-8.172-18.253-18.253-18.253s-18.253 8.172-18.253 18.253Z"/><path fill="#3C322D" fill-opacity=".06" d="M573 825c0 8.837-7.163 16-16 16s-16-7.163-16-16 7.163-16 16-16 16 7.163 16 16Zm-22.401 0a6.401 6.401 0 1 0 12.802 0 6.401 6.401 0 0 0-12.802 0ZM570 1248c0 8.84-7.163 16-16 16s-16-7.16-16-16 7.163-16 16-16 16 7.16 16 16Zm-22.401 0c0 3.54 2.866 6.4 6.401 6.4a6.397 6.397 0 0 0 6.401-6.4c0-3.54-2.866-6.4-6.401-6.4a6.397 6.397 0 0 0-6.401 6.4Z"/><path fill="#F3848C" fill-opacity=".12" d="M566 484c0 22.091-17.909 40-40 40s-40-17.909-40-40 17.909-40 40-40 40 17.909 40 40Zm-64.536 0c0 13.551 10.985 24.536 24.536 24.536 13.551 0 24.536-10.985 24.536-24.536 0-13.551-10.985-24.536-24.536-24.536-13.551 0-24.536 10.985-24.536 24.536Z"/></g><defs><linearGradient id="b" x1="384" x2="345.885" y1="435.028" y2="4082.82" gradientUnits="userSpaceOnUse"><stop stop-color="#E5E2E3"/><stop offset=".306" stop-color="#FDFEFE"/><stop offset=".677" stop-color="#E5E2E3"/><stop offset="1" stop-color="#FDFEFE"/></linearGradient><clipPath id="a"><path fill="#fff" d="M0 0h768v4083H0z"/></clipPath></defs></svg>