<svg width="24" height="24" fill="none" xmlns="http://www.w3.org/2000/svg"><circle cx="12" cy="12" r="11.5" fill="#fff" stroke="#F3848C"/><g filter="url('#filter0_f_12359_94')"><circle cx="12" cy="12" r="10" fill="#fff"/><circle cx="12" cy="12" r="9.75" stroke="#F3848C" stroke-width=".5" stroke-linecap="round" stroke-dasharray="2 2"/></g><path d="M7 8.215c0 1.06.774 1.94 1.785 2.11v3.247a.357.357 0 0 0 .358.357h5.715a.357.357 0 0 0 .357-.357v-3.247A2.144 2.144 0 0 0 17 8.215a2.145 2.145 0 0 0-2.143-2.143h-.808A2.498 2.498 0 0 0 12 5c-.847 0-1.597.425-2.049 1.072h-.808A2.145 2.145 0 0 0 7 8.215Zm2.5 4.643h5v.356h-5v-.356Zm-.357-6.072h.462c-.07.232-.105.472-.105.714a.357.357 0 1 0 .714 0c0-.985.801-1.786 1.786-1.786s1.786.801 1.786 1.786a.357.357 0 0 0 .714 0c0-.248-.037-.487-.105-.714h.462a1.43 1.43 0 0 1 1.01 2.437 1.43 1.43 0 0 1-1.007.42h-.002A.356.356 0 0 0 14.5 10v2.144h-5V10a.357.357 0 0 0-.357-.358H9.14a1.43 1.43 0 0 1 .002-2.856Zm6.785 8.572H8.072a.357.357 0 1 0 0 .714h7.856a.357.357 0 1 0 0-.714Zm0 1.071H8.072a.357.357 0 1 0 0 .715h7.856a.357.357 0 1 0 0-.715Zm-1.786 1.081H9.858a.357.357 0 1 0 0 .714h4.284a.357.357 0 1 0 0-.714Z" fill="#000"/><defs><filter id="filter0_f_12359_94" x="1.8" y="1.8" width="20.4" height="20.4" filterUnits="userSpaceOnUse" color-interpolation-filters="sRGB"><feFlood flood-opacity="0" result="BackgroundImageFix"/><feBlend in="SourceGraphic" in2="BackgroundImageFix" result="shape"/><feGaussianBlur stdDeviation=".1" result="effect1_foregroundBlur_12359_94"/></filter></defs></svg>