<svg xmlns="http://www.w3.org/2000/svg" width="1280" height="5087" fill="none">
  <g clip-path="url(#a)">
    <path fill="url(#b)" d="M0 0h1280v5087H0z"/>
    <path fill="#F3848C" fill-opacity=".12" d="M1006 4660c0 11.05-8.954 20-20 20s-20-8.95-20-20 8.954-20 20-20 20 8.95 20 20Zm-32.268 0c0 6.78 5.493 12.27 12.268 12.27s12.268-5.49 12.268-12.27c0-6.78-5.493-12.27-12.268-12.27s-12.268 5.49-12.268 12.27ZM535 4558c0 22.09-17.909 40-40 40s-40-17.91-40-40 17.909-40 40-40 40 17.91 40 40Zm-64.536 0c0 13.55 10.985 24.54 24.536 24.54 13.551 0 24.536-10.99 24.536-24.54 0-13.55-10.985-24.54-24.536-24.54-13.551 0-24.536 10.99-24.536 24.54Z"/>
    <path fill="#D68362" fill-opacity=".17" d="M258 4925c0 27.61-22.386 50-50 50s-50-22.39-50-50 22.386-50 50-50 50 22.39 50 50Zm-86.507 0c0 20.16 16.345 36.51 36.507 36.51s36.507-16.35 36.507-36.51c0-20.16-16.345-36.51-36.507-36.51s-36.507 16.35-36.507 36.51Z"/>
    <path fill="#E6C01C" fill-opacity=".06" d="M1223 4846c0 27.61-22.39 50-50 50s-50-22.39-50-50 22.39-50 50-50 50 22.39 50 50Zm-80.67 0c0 16.94 13.73 30.67 30.67 30.67s30.67-13.73 30.67-30.67-13.73-30.67-30.67-30.67-30.67 13.73-30.67 30.67Z"/>
    <path fill="#3C322D" fill-opacity=".12" d="M158 4426c0 27.61-22.386 50-50 50s-50-22.39-50-50 22.386-50 50-50 50 22.39 50 50Zm-86.97 0c0 20.42 16.552 36.97 36.97 36.97s36.97-16.55 36.97-36.97c0-20.42-16.552-36.97-36.97-36.97s-36.97 16.55-36.97 36.97Z"/>
    <path fill="#D68362" fill-opacity=".15" d="M1263 4307c0 27.61-22.39 50-50 50s-50-22.39-50-50 22.39-50 50-50 50 22.39 50 50Zm-80.74 0c0 16.98 13.76 30.74 30.74 30.74 16.98 0 30.74-13.76 30.74-30.74 0-16.98-13.76-30.74-30.74-30.74-16.98 0-30.74 13.76-30.74 30.74Z"/>
    <path fill="#3C322D" fill-opacity=".06" d="M853 3346.5c0 18.5-14.998 33.5-33.5 33.5-18.502 0-33.5-15-33.5-33.5s14.998-33.5 33.5-33.5c18.502 0 33.5 15 33.5 33.5Zm-46.903 0c0 7.4 6.001 13.4 13.403 13.4s13.403-6 13.403-13.4-6.001-13.4-13.403-13.4-13.403 6-13.403 13.4Z"/>
    <path fill="#D68362" fill-opacity=".17" d="M903 3707c0 27.61-22.386 50-50 50s-50-22.39-50-50 22.386-50 50-50 50 22.39 50 50Zm-86.507 0c0 20.16 16.345 36.51 36.507 36.51s36.507-16.35 36.507-36.51c0-20.16-16.345-36.51-36.507-36.51s-36.507 16.35-36.507 36.51Z"/>
    <path fill="#E6C01C" fill-opacity=".06" d="M1161 3837c0 19.33-15.67 35-35 35s-35-15.67-35-35 15.67-35 35-35 35 15.67 35 35Zm-56.47 0c0 11.86 9.61 21.47 21.47 21.47s21.47-9.61 21.47-21.47-9.61-21.47-21.47-21.47-21.47 9.61-21.47 21.47Z"/>
    <path fill="#3C322D" fill-opacity=".12" d="M126 3432c0 27.61-22.386 50-50 50s-50-22.39-50-50 22.386-50 50-50 50 22.39 50 50Zm-86.97 0c0 20.42 16.552 36.97 36.97 36.97s36.97-16.55 36.97-36.97c0-20.42-16.552-36.97-36.97-36.97s-36.97 16.55-36.97 36.97Z"/>
    <path fill="#D68362" fill-opacity=".15" d="M1231 3313c0 27.61-22.39 50-50 50s-50-22.39-50-50 22.39-50 50-50 50 22.39 50 50Zm-80.74 0c0 16.98 13.76 30.74 30.74 30.74 16.98 0 30.74-13.76 30.74-30.74 0-16.98-13.76-30.74-30.74-30.74-16.98 0-30.74 13.76-30.74 30.74Z"/>
    <path fill="#3C322D" fill-opacity=".12" d="M403 3710c0 5.52-4.477 10-10 10s-10-4.48-10-10 4.477-10 10-10 10 4.48 10 10Zm-17.394 0c0 4.08 3.31 7.39 7.394 7.39a7.393 7.393 0 0 0 7.394-7.39c0-4.08-3.31-7.39-7.394-7.39a7.393 7.393 0 0 0-7.394 7.39Z"/>
    <path fill="#D68362" fill-opacity=".17" d="M200 3920c0 27.61-22.386 50-50 50s-50-22.39-50-50 22.386-50 50-50 50 22.39 50 50Zm-86.507 0c0 20.16 16.345 36.51 36.507 36.51s36.507-16.35 36.507-36.51c0-20.16-16.345-36.51-36.507-36.51s-36.507 16.35-36.507 36.51Z"/>
    <path fill="#F3848C" fill-opacity=".12" d="M1026 4000c0 11.05-8.95 20-20 20-11.046 0-20-8.95-20-20s8.954-20 20-20c11.05 0 20 8.95 20 20Zm-32.268 0c0 6.78 5.493 12.27 12.268 12.27 6.78 0 12.27-5.49 12.27-12.27 0-6.78-5.49-12.27-12.27-12.27-6.775 0-12.268 5.49-12.268 12.27ZM445 3097c0 22.09-17.909 40-40 40s-40-17.91-40-40 17.909-40 40-40 40 17.91 40 40Zm-64.536 0c0 13.55 10.985 24.54 24.536 24.54 13.551 0 24.536-10.99 24.536-24.54 0-13.55-10.985-24.54-24.536-24.54-13.551 0-24.536 10.99-24.536 24.54ZM996 2436c0 22.09-17.909 40-40 40s-40-17.91-40-40 17.909-40 40-40 40 17.91 40 40Zm-64.536 0c0 13.55 10.985 24.54 24.536 24.54 13.551 0 24.536-10.99 24.536-24.54 0-13.55-10.985-24.54-24.536-24.54-13.551 0-24.536 10.99-24.536 24.54Z"/>
    <path fill="#3C322D" fill-opacity=".06" d="M907 1782c0 8.84-7.163 16-16 16s-16-7.16-16-16 7.163-16 16-16 16 7.16 16 16Zm-22.401 0c0 3.54 2.866 6.4 6.401 6.4a6.397 6.397 0 0 0 6.401-6.4c0-3.54-2.866-6.4-6.401-6.4a6.397 6.397 0 0 0-6.401 6.4Z"/>
    <path fill="#D68362" fill-opacity=".17" d="M20 1921c0 11.05-8.954 20-20 20s-20-8.95-20-20 8.954-20 20-20 20 8.95 20 20Zm-34.603 0c0 8.06 6.538 14.6 14.603 14.6s14.603-6.54 14.603-14.6c0-8.06-6.538-14.6-14.603-14.6s-14.603 6.54-14.603 14.6Z"/>
    <path fill="#D68362" fill-opacity=".15" d="M1331 1898c0 27.61-22.39 50-50 50s-50-22.39-50-50 22.39-50 50-50 50 22.39 50 50Zm-80.74 0c0 16.98 13.76 30.74 30.74 30.74 16.98 0 30.74-13.76 30.74-30.74 0-16.98-13.76-30.74-30.74-30.74-16.98 0-30.74 13.76-30.74 30.74Z"/>
    <path fill="#F3848C" fill-opacity=".12" d="M411 1842c0 22.09-17.909 40-40 40s-40-17.91-40-40 17.909-40 40-40 40 17.91 40 40Zm-64.536 0c0 13.55 10.985 24.54 24.536 24.54 13.551 0 24.536-10.99 24.536-24.54 0-13.55-10.985-24.54-24.536-24.54-13.551 0-24.536 10.99-24.536 24.54Z"/>
    <path fill="#E6C01C" fill-opacity=".06" d="M743 1896c0 13.81-11.193 25-25 25s-25-11.19-25-25 11.193-25 25-25 25 11.19 25 25Zm-40.335 0c0 8.47 6.866 15.33 15.335 15.33 8.469 0 15.335-6.86 15.335-15.33 0-8.47-6.866-15.33-15.335-15.33-8.469 0-15.335 6.86-15.335 15.33Z"/>
    <path fill="#3C322D" fill-opacity=".06" d="M111 1782c0 8.84-7.163 16-16 16s-16-7.16-16-16 7.163-16 16-16 16 7.16 16 16Zm-22.401 0c0 3.54 2.866 6.4 6.401 6.4a6.397 6.397 0 0 0 6.401-6.4c0-3.54-2.866-6.4-6.401-6.4a6.397 6.397 0 0 0-6.401 6.4ZM938 1080.5c0 18.5-14.998 33.5-33.5 33.5-18.502 0-33.5-15-33.5-33.5s14.998-33.5 33.5-33.5c18.502 0 33.5 15 33.5 33.5Zm-46.903 0c0 7.4 6.001 13.4 13.403 13.4s13.403-6 13.403-13.4-6.001-13.4-13.403-13.4-13.403 6-13.403 13.4Z"/>
    <path fill="#F3848C" fill-opacity=".12" d="M601 1302c0 22.09-17.909 40-40 40s-40-17.91-40-40 17.909-40 40-40 40 17.91 40 40Zm-64.536 0c0 13.55 10.985 24.54 24.536 24.54 13.551 0 24.536-10.99 24.536-24.54 0-13.55-10.985-24.54-24.536-24.54-13.551 0-24.536 10.99-24.536 24.54Z"/>
    <path fill="#D68362" fill-opacity=".17" d="M988 1441c0 27.61-22.386 50-50 50s-50-22.39-50-50 22.386-50 50-50 50 22.39 50 50Zm-86.507 0c0 20.16 16.345 36.51 36.507 36.51s36.507-16.35 36.507-36.51c0-20.16-16.345-36.51-36.507-36.51s-36.507 16.35-36.507 36.51Z"/>
    <path fill="#E6C01C" fill-opacity=".06" d="M436 1633c0 27.61-22.386 50-50 50s-50-22.39-50-50 22.386-50 50-50 50 22.39 50 50Zm-80.67 0c0 16.94 13.732 30.67 30.67 30.67 16.938 0 30.67-13.73 30.67-30.67s-13.732-30.67-30.67-30.67c-16.938 0-30.67 13.73-30.67 30.67Z"/>
    <path fill="#3C322D" fill-opacity=".12" d="M211 1166c0 27.61-22.386 50-50 50s-50-22.39-50-50 22.386-50 50-50 50 22.39 50 50Zm-86.97 0c0 20.42 16.552 36.97 36.97 36.97s36.97-16.55 36.97-36.97c0-20.42-16.552-36.97-36.97-36.97s-36.97 16.55-36.97 36.97Z"/>
    <path fill="#D68362" fill-opacity=".15" d="M1316 1047c0 27.61-22.39 50-50 50s-50-22.39-50-50 22.39-50 50-50 50 22.39 50 50Zm-80.74 0c0 16.98 13.76 30.74 30.74 30.74 16.98 0 30.74-13.76 30.74-30.74 0-16.98-13.76-30.74-30.74-30.74-16.98 0-30.74 13.76-30.74 30.74Z"/>
    <path fill="#3C322D" fill-opacity=".12" d="M488 1444c0 5.52-4.477 10-10 10s-10-4.48-10-10 4.477-10 10-10 10 4.48 10 10Zm-17.394 0c0 4.08 3.31 7.39 7.394 7.39a7.393 7.393 0 0 0 7.394-7.39c0-4.08-3.31-7.39-7.394-7.39a7.393 7.393 0 0 0-7.394 7.39Z"/>
    <path fill="#F3848C" fill-opacity=".12" d="M886 714c0 27.614-22.386 50-50 50s-50-22.386-50-50 22.386-50 50-50 50 22.386 50 50Zm-80.67 0c0 16.938 13.732 30.67 30.67 30.67 16.938 0 30.67-13.732 30.67-30.67 0-16.938-13.732-30.67-30.67-30.67-16.938 0-30.67 13.732-30.67 30.67ZM599 246c0 41.421-33.579 75-75 75s-75-33.579-75-75 33.579-75 75-75 75 33.579 75 75Zm-121.004 0c0 25.408 20.596 46.004 46.004 46.004 25.408 0 46.004-20.596 46.004-46.004 0-25.408-20.596-46.004-46.004-46.004-25.408 0-46.004 20.596-46.004 46.004Z"/>
  </g>
  <defs>
    <linearGradient id="b" x1="640" x2="604.5" y1="542" y2="5087" gradientUnits="userSpaceOnUse">
      <stop stop-color="#E5E2E3"/>
      <stop offset=".306" stop-color="#FDFEFE"/>
      <stop offset=".677" stop-color="#E5E2E3"/>
      <stop offset="1" stop-color="#FDFEFE"/>
    </linearGradient>
    <clipPath id="a">
      <path fill="#fff" d="M0 0h1280v5087H0z"/>
    </clipPath>
  </defs>
</svg>
