<svg width="11" height="15" viewBox="0 0 11 15" fill="none" xmlns="http://www.w3.org/2000/svg">
<path d="M5.5 0C8.53262 0 11 2.4053 11 5.3616C11 6.53153 10.6209 7.64317 9.90282 8.57581L5.83903 13.9113C5.82887 13.9242 5.81336 13.9292 5.80208 13.9407C5.599 14.1527 5.30595 14.0994 5.16126 13.9113C3.99103 12.3892 1.84603 9.5464 1.02131 8.47408C1.02131 8.47408 1.02103 8.47325 1.02074 8.4727L1.01567 8.4661C0.351154 7.55601 0 6.48259 0 5.3616C0 2.4053 2.46738 0 5.5 0ZM5.5 8.25412C7.13279 8.25412 8.46718 6.95331 8.46718 5.3616C8.46718 3.76989 7.13279 2.46909 5.5 2.46909C3.86721 2.46909 2.53282 3.76989 2.53282 5.3616C2.53282 6.95331 3.86721 8.25412 5.5 8.25412Z" fill="black"/>
</svg>
