<svg width="13" height="13" viewBox="0 0 13 13" fill="none" xmlns="http://www.w3.org/2000/svg">
<path d="M11.9559 8.31747C11.1601 8.31747 10.3787 8.19614 9.63815 7.95759C9.2753 7.83694 8.82924 7.94762 8.60778 8.16934L7.14618 9.24491C5.45113 8.36288 4.40702 7.34539 3.51456 5.70543L4.58545 4.31776C4.86368 4.0469 4.96347 3.65124 4.84391 3.28001C4.59815 2.55436 4.4733 1.79297 4.4733 1.01683C4.47333 0.456146 4.00541 0 3.43027 0H1.04306C0.467929 0 0 0.456146 0 1.0168C0 7.44336 5.36336 12.6716 11.9559 12.6716C12.5311 12.6716 12.999 12.2155 12.999 11.6548V9.33424C12.999 8.77362 12.531 8.31747 11.9559 8.31747Z" fill="#2E2520"/>
</svg>
