<svg width="24" height="24" viewBox="0 0 24 24" fill="none" xmlns="http://www.w3.org/2000/svg">
<circle cx="12" cy="12" r="11.5" fill="white" stroke="#F3848C"/>
<g filter="url(#filter0_f_12359_94)">
<circle cx="12" cy="12" r="10" fill="white"/>
<circle cx="12" cy="12" r="9.75" stroke="#F3848C" stroke-width="0.5" stroke-linecap="round" stroke-dasharray="2 2"/>
</g>
<path d="M7 8.21452C7 9.27423 7.77363 10.1543 8.78548 10.325V13.5717C8.78548 13.6664 8.82311 13.7573 8.8901 13.8242C8.95708 13.8912 9.04793 13.9289 9.14265 13.9289H14.8577C14.9524 13.9289 15.0433 13.8912 15.1103 13.8242C15.1772 13.7573 15.2149 13.6664 15.2149 13.5717V10.325C16.2264 10.1539 17 9.27423 17 8.21452C17 7.03265 16.0389 6.0715 14.857 6.0715H14.0487C13.5962 5.42467 12.8472 5 12 5C11.1528 5 10.4035 5.42467 9.95128 6.0715H9.14265C8.57453 6.07217 8.02987 6.29817 7.62817 6.69993C7.22648 7.10169 7.00057 7.64639 7 8.21452ZM9.49982 12.8581H14.5005V13.2145H9.49982V12.8581ZM9.14301 6.78584H9.60519C9.53566 7.0176 9.50017 7.25822 9.49982 7.50018C9.49982 7.59491 9.53745 7.68575 9.60443 7.75273C9.67142 7.81972 9.76226 7.85735 9.85699 7.85735C9.95172 7.85735 10.0426 7.81972 10.1095 7.75273C10.1765 7.68575 10.2142 7.59491 10.2142 7.50018C10.2142 6.51547 11.0153 5.71434 12 5.71434C12.9847 5.71434 13.7858 6.51547 13.7858 7.50018C13.7858 7.59491 13.8235 7.68575 13.8905 7.75273C13.9574 7.81972 14.0483 7.85735 14.143 7.85735C14.2377 7.85735 14.3286 7.81972 14.3956 7.75273C14.4625 7.68575 14.5002 7.59491 14.5002 7.50018C14.5002 7.25195 14.4627 7.01264 14.3948 6.78584H14.857C15.6449 6.78584 16.2857 7.4266 16.2857 8.21452C16.2853 8.59278 16.135 8.95548 15.8678 9.22319C15.6005 9.4909 15.2381 9.64179 14.8598 9.64283L14.8577 9.64247C14.8107 9.64241 14.7642 9.65165 14.7208 9.66967C14.6774 9.6877 14.638 9.71414 14.6048 9.74748C14.5715 9.78061 14.545 9.82001 14.527 9.86341C14.509 9.90682 14.4998 9.95336 14.4998 10.0004L14.5005 10.0039V12.1437H9.49982V10.0021L9.50018 10.0004C9.50027 9.95336 9.49109 9.90681 9.47316 9.86337C9.45523 9.81993 9.42891 9.78046 9.39569 9.74721C9.36248 9.71397 9.32303 9.6876 9.27961 9.66963C9.23619 9.65166 9.18965 9.64243 9.14265 9.64247L9.14051 9.64283C8.76218 9.64189 8.39966 9.49103 8.13234 9.22331C7.86502 8.9556 7.71471 8.59284 7.71434 8.21452C7.71434 7.4266 8.3551 6.78584 9.14301 6.78584ZM15.9278 15.3579H8.07222C7.97749 15.3579 7.88665 15.3955 7.81966 15.4625C7.75268 15.5295 7.71505 15.6203 7.71505 15.7151C7.71505 15.8098 7.75268 15.9006 7.81966 15.9676C7.88665 16.0346 7.97749 16.0722 8.07222 16.0722H15.9278C16.0225 16.0722 16.1134 16.0346 16.1803 15.9676C16.2473 15.9006 16.2849 15.8098 16.2849 15.7151C16.2849 15.6203 16.2473 15.5295 16.1803 15.4625C16.1134 15.3955 16.0225 15.3579 15.9278 15.3579ZM15.9278 16.4294H8.07222C7.97749 16.4294 7.88665 16.467 7.81966 16.534C7.75268 16.601 7.71505 16.6918 7.71505 16.7866C7.71505 16.8813 7.75268 16.9721 7.81966 17.0391C7.88665 17.1061 7.97749 17.1437 8.07222 17.1437H15.9278C16.0225 17.1437 16.1134 17.1061 16.1803 17.0391C16.2473 16.9721 16.2849 16.8813 16.2849 16.7866C16.2849 16.6918 16.2473 16.601 16.1803 16.534C16.1134 16.467 16.0225 16.4294 15.9278 16.4294ZM14.1423 17.5102H9.8577C9.76298 17.5102 9.67213 17.5478 9.60515 17.6148C9.53817 17.6818 9.50054 17.7726 9.50054 17.8673C9.50054 17.9621 9.53817 18.0529 9.60515 18.1199C9.67213 18.1869 9.76298 18.2245 9.8577 18.2245H14.1423C14.237 18.2245 14.3279 18.1869 14.3949 18.1199C14.4618 18.0529 14.4995 17.9621 14.4995 17.8673C14.4995 17.7726 14.4618 17.6818 14.3949 17.6148C14.3279 17.5478 14.237 17.5102 14.1423 17.5102Z" fill="black"/>
<defs>
<filter id="filter0_f_12359_94" x="1.8" y="1.8" width="20.4" height="20.4" filterUnits="userSpaceOnUse" color-interpolation-filters="sRGB">
<feFlood flood-opacity="0" result="BackgroundImageFix"/>
<feBlend mode="normal" in="SourceGraphic" in2="BackgroundImageFix" result="shape"/>
<feGaussianBlur stdDeviation="0.1" result="effect1_foregroundBlur_12359_94"/>
</filter>
</defs>
</svg>
